<?xml version="1.0" standalone="no"?>
<!DOCTYPE svg PUBLIC "-//W3C//DTD SVG 20010904//EN"
 "http://www.w3.org/TR/2001/REC-SVG-20010904/DTD/svg10.dtd">
<svg version="1.0" xmlns="http://www.w3.org/2000/svg"
 width="192.000000pt" height="31.000000pt" viewBox="0 0 192.000000 31.000000"
 preserveAspectRatio="xMidYMid meet">

<g transform="translate(0.000000,31.000000) scale(0.100000,-0.100000)"
fill="#000000" stroke="none">
<path d="M290 282 c0 -16 65 -80 88 -87 22 -6 22 -6 -6 42 -21 36 -35 49 -55
51 -15 2 -27 -1 -27 -6z"/>
<path d="M147 258 c12 -13 42 -57 69 -98 26 -41 60 -92 76 -112 28 -36 33 -38
86 -38 l55 0 -20 23 c-11 12 -50 67 -88 122 -37 55 -75 106 -83 113 -9 6 -38
12 -66 12 l-49 0 20 -22z"/>
<path d="M562 240 c13 -22 29 -42 37 -45 11 -4 11 -1 -1 17 -8 13 -21 33 -29
46 -24 39 -31 24 -7 -18z"/>
<path d="M850 209 c0 -25 33 -22 38 4 2 12 -3 17 -17 17 -15 0 -21 -6 -21 -21z"/>
<path d="M693 158 c9 -94 41 -133 73 -90 23 29 61 96 68 120 6 18 3 22 -13 22
-14 0 -26 -13 -40 -45 -21 -48 -41 -59 -41 -22 0 43 -12 67 -33 67 -18 0 -19
-5 -14 -52z"/>
<path d="M1486 188 c-18 -85 -24 -123 -20 -130 11 -18 33 -6 36 19 2 22 10 29
38 34 35 8 60 31 60 59 0 27 -22 40 -67 40 -36 0 -43 -3 -47 -22z m74 -27 c0
-20 -17 -31 -36 -24 -7 2 -10 13 -7 24 7 25 43 25 43 0z"/>
<path d="M1657 199 c-22 -13 -47 -61 -47 -92 0 -55 77 -76 125 -34 34 29 45
90 20 117 -20 22 -68 26 -98 9z m71 -57 c4 -42 -14 -64 -47 -60 -20 2 -27 9
-29 30 -5 42 15 70 46 66 22 -2 28 -9 30 -36z"/>
<path d="M1813 195 c-13 -9 -23 -27 -23 -40 0 -19 7 -26 32 -33 19 -5 34 -16
36 -26 3 -16 -2 -18 -37 -14 -33 3 -41 1 -39 -12 5 -25 73 -25 98 0 28 28 22
52 -18 69 -47 21 -42 44 8 39 32 -3 40 0 38 12 -4 21 -67 25 -95 5z"/>
<path d="M35 190 c-3 -5 3 -10 15 -10 12 0 18 5 15 10 -3 6 -10 10 -15 10 -5
0 -12 -4 -15 -10z"/>
<path d="M513 172 c-22 -7 -93 -97 -93 -118 0 -7 11 -19 23 -27 19 -12 29 -13
48 -4 23 12 109 128 109 148 0 10 -53 10 -87 1z"/>
<path d="M920 165 c-11 -13 -8 -15 21 -15 l33 0 -37 -38 c-52 -53 -49 -64 20
-60 62 3 90 28 31 28 l-33 0 38 35 c21 20 37 41 34 48 -6 19 -91 21 -107 2z"/>
<path d="M1043 144 c3 -22 9 -54 12 -71 7 -29 5 -33 -14 -33 -25 0 -27 -30 -3
-38 28 -9 143 142 127 168 -13 21 -33 8 -51 -32 l-19 -42 -11 40 c-7 24 -18
40 -29 43 -15 3 -17 -2 -12 -35z"/>
<path d="M1185 154 c-46 -50 -26 -107 37 -107 37 0 78 41 78 78 0 57 -73 75
-115 29z m70 -33 c0 -30 -29 -51 -46 -34 -10 10 -10 18 -1 38 15 33 47 30 47
-4z"/>
<path d="M1341 163 c-24 -20 -45 -93 -31 -107 16 -16 40 3 40 32 0 35 22 68
39 57 9 -5 11 -21 6 -51 -6 -40 -4 -44 14 -44 24 0 34 29 29 86 -3 37 -5 39
-39 42 -23 2 -43 -3 -58 -15z"/>
<path d="M836 148 c-3 -13 -6 -40 -6 -60 0 -34 3 -38 24 -38 28 0 45 19 27 29
-8 5 -10 22 -5 49 6 38 4 42 -14 42 -12 0 -22 -9 -26 -22z"/>
</g>
</svg>
