<?xml version="1.0" standalone="no"?>
<!DOCTYPE svg PUBLIC "-//W3C//DTD SVG 20010904//EN"
 "http://www.w3.org/TR/2001/REC-SVG-20010904/DTD/svg10.dtd">
<svg version="1.0" xmlns="http://www.w3.org/2000/svg"
 width="250.000000pt" height="76.000000pt" viewBox="0 0 250.000000 76.000000"
 preserveAspectRatio="xMidYMid meet">

<g transform="translate(0.000000,76.000000) scale(0.100000,-0.100000)"
fill="#000000" stroke="none">
<path d="M370 575 c0 -12 69 -111 91 -131 17 -15 40 -20 112 -23 l91 -3 -15
23 c-9 13 -28 45 -43 72 l-28 47 -85 0 c-46 0 -93 5 -104 10 -10 6 -19 8 -19
5z"/>
<path d="M600 550 c0 -8 52 -100 67 -119 2 -3 39 -5 83 -6 l80 -1 -17 25 c-59
92 -65 99 -95 105 -47 9 -118 7 -118 -4z"/>
<path d="M208 498 c22 -29 66 -96 97 -148 32 -52 73 -114 92 -137 l34 -43 81
0 81 0 -20 23 c-11 12 -62 85 -113 162 -131 198 -128 195 -217 195 l-74 0 39
-52z"/>
<path d="M80 465 l-65 -65 62 0 c79 0 98 7 81 29 -11 14 -11 14 4 3 13 -11 20
-11 37 0 12 7 21 16 21 20 0 10 -60 78 -69 78 -3 -1 -35 -30 -71 -65z"/>
<path d="M1123 464 c-3 -8 2 -23 11 -32 14 -15 18 -15 31 -1 9 9 13 23 9 32
-8 21 -43 22 -51 1z"/>
<path d="M1983 463 c-13 -3 -25 -14 -28 -26 -23 -110 -35 -189 -30 -197 3 -5
17 -10 31 -10 19 0 24 5 24 24 0 42 10 56 42 56 43 0 88 48 88 94 0 55 -43 75
-127 59z m65 -55 c16 -16 -3 -48 -28 -48 -22 0 -23 3 -14 38 7 24 23 29 42 10z"/>
<path d="M2154 413 c-74 -114 -94 -183 -54 -183 13 0 24 10 30 25 8 21 16 25
49 25 33 0 40 -3 43 -22 2 -17 11 -24 31 -26 l29 -4 -7 79 c-11 116 -23 147
-60 151 -26 2 -34 -3 -61 -45z m56 -48 c0 -28 -4 -35 -20 -35 -24 0 -26 18 -4
48 21 30 24 28 24 -13z"/>
<path d="M2300 440 c0 -11 7 -37 16 -58 9 -20 17 -62 18 -92 1 -48 4 -55 23
-58 19 -3 23 3 29 44 4 28 17 58 34 78 64 74 75 106 38 106 -16 0 -31 -13 -47
-40 -27 -44 -37 -43 -49 3 -6 25 -14 33 -35 35 -22 3 -27 -1 -27 -18z"/>
<path d="M910 402 c0 -56 26 -163 42 -173 23 -14 36 0 115 130 40 67 42 91 9
91 -21 0 -30 -10 -52 -60 -41 -92 -51 -94 -60 -11 -6 66 -8 71 -30 71 -22 0
-24 -4 -24 -48z"/>
<path d="M664 395 c-26 -18 -104 -136 -104 -157 0 -22 47 -58 76 -58 13 0 38
15 56 33 34 34 118 167 118 186 0 17 -122 14 -146 -4z"/>
<path d="M1223 404 c-28 -12 -13 -34 22 -34 19 0 35 -3 35 -6 0 -3 -23 -28
-51 -54 -28 -27 -49 -54 -47 -62 3 -9 25 -13 74 -13 57 0 69 3 72 18 3 14 -4
17 -32 17 -20 0 -36 2 -36 5 0 2 20 23 45 47 64 58 60 82 -15 85 -30 1 -61 -1
-67 -3z"/>
<path d="M1370 368 c0 -24 5 -63 11 -87 11 -48 0 -71 -33 -71 -30 0 -18 -34
13 -38 18 -2 35 6 58 30 42 43 99 137 107 177 6 27 4 31 -14 31 -15 0 -27 -15
-46 -57 -15 -31 -29 -53 -33 -49 -4 4 -10 28 -13 54 -4 39 -9 48 -27 50 -21 3
-23 -1 -23 -40z"/>
<path d="M1559 381 c-23 -24 -29 -38 -29 -75 0 -36 5 -48 26 -65 15 -12 35
-21 46 -21 35 0 79 31 94 65 19 47 18 68 -7 99 -30 38 -90 37 -130 -3z m86
-55 c0 -42 -20 -64 -49 -53 -36 14 -5 102 33 95 11 -2 16 -15 16 -42z"/>
<path d="M1756 386 c-24 -24 -53 -126 -41 -146 3 -5 15 -10 25 -10 15 0 21 12
31 60 12 64 29 86 55 76 13 -5 15 -15 10 -49 -13 -81 -13 -82 14 -82 22 0 26
6 36 55 11 56 4 98 -19 112 -26 17 -88 8 -111 -16z"/>
<path d="M1099 331 c-15 -84 -9 -101 31 -101 35 0 53 27 28 41 -13 7 -14 17
-6 54 12 54 6 75 -21 75 -16 0 -21 -12 -32 -69z"/>
</g>
</svg>
