<?xml version="1.0" standalone="no"?>
<!DOCTYPE svg PUBLIC "-//W3C//DTD SVG 20010904//EN"
 "http://www.w3.org/TR/2001/REC-SVG-20010904/DTD/svg10.dtd">
<svg version="1.0" xmlns="http://www.w3.org/2000/svg"
 width="4560.000000pt" height="660.000000pt" viewBox="0 0 4560.000000 660.000000"
 preserveAspectRatio="xMidYMid meet">

<g transform="translate(0.000000,660.000000) scale(0.100000,-0.100000)"
fill="#000000" stroke="none">
<path d="M6640 6477 c0 -13 204 -371 343 -602 515 -860 986 -1446 1341 -1669
288 -181 920 -273 1803 -264 l292 3 -630 1063 -631 1062 -477 0 c-773 0 -1091
25 -1446 115 -234 58 -426 148 -547 255 -27 23 -48 39 -48 37z"/>
<path d="M11580 6053 c0 -4 268 -458 594 -1008 l594 -1000 194 -2 c403 -6 788
-72 947 -164 l33 -20 -19 33 c-128 217 -868 1337 -1069 1618 -229 322 -303
403 -397 438 -113 43 -403 83 -687 97 -69 3 -140 8 -157 11 -18 3 -33 1 -33
-3z"/>
<path d="M4430 5940 c-476 -10 -867 -18 -869 -19 -2 0 24 -21 58 -46 158 -117
473 -470 772 -870 320 -426 594 -847 1204 -1850 802 -1318 1138 -1828 1496
-2275 375 -468 606 -661 874 -731 79 -21 90 -21 870 -13 1126 10 1563 18 1540
28 -267 113 -498 310 -754 646 -154 201 -530 750 -1376 2005 -1768 2624 -1771
2629 -1910 2774 -173 182 -369 301 -580 352 -97 23 -110 23 -1325 -1z"/>
<path d="M3224 5638 c-49 -57 -135 -156 -191 -220 -57 -64 -103 -121 -103
-127 0 -6 244 -280 542 -608 297 -329 544 -602 548 -606 15 -17 490 320 490
348 0 37 -281 407 -538 709 -322 379 -566 606 -651 606 -5 0 -49 -46 -97 -102z"/>
<path d="M42424 4920 c-125 -18 -243 -79 -339 -175 -271 -271 -218 -680 99
-771 79 -22 218 -15 297 15 169 65 313 211 371 379 32 94 32 242 0 324 -64
161 -242 255 -428 228z"/>
<path d="M18629 4867 c-125 -43 -224 -143 -270 -271 -27 -80 -28 -209 -1 -287
63 -179 228 -298 412 -299 170 0 321 94 397 247 34 68 38 85 41 172 3 79 0
107 -18 160 -78 233 -329 357 -561 278z"/>
<path d="M2125 4462 c-349 -346 -561 -540 -722 -659 -86 -63 -213 -133 -244
-133 -10 0 -19 -4 -19 -9 0 -19 173 -24 700 -18 890 10 1630 49 1630 86 0 7
-892 996 -958 1063 l-27 27 -360 -357z"/>
<path d="M38895 4768 c-4 -15 -468 -2422 -496 -2578 -25 -140 -35 -380 -20
-492 70 -526 409 -796 1031 -825 306 -13 609 53 880 193 574 297 950 933 986
1666 27 549 -197 940 -621 1085 -106 36 -224 53 -369 53 -272 0 -435 -71 -654
-284 -78 -76 -102 -94 -98 -76 3 14 36 178 72 365 53 274 67 366 71 471 7 175
-7 225 -87 305 -49 50 -67 60 -138 83 -127 40 -546 65 -557 34z m1160 -1669
c152 -28 240 -119 276 -285 29 -137 3 -432 -56 -639 -110 -383 -368 -599 -665
-557 -132 19 -216 72 -267 169 -43 82 -56 151 -55 288 3 355 136 710 332 888
131 118 280 165 435 136z"/>
<path d="M43556 4754 c-3 -16 -133 -686 -288 -1489 l-282 -1460 -1 -170 c0
-191 10 -245 72 -375 52 -109 158 -213 275 -269 302 -146 743 -92 936 113 85
91 109 148 154 371 21 105 38 198 38 208 0 15 -13 17 -133 17 -147 0 -232 12
-288 40 -78 40 -116 120 -105 221 3 31 98 537 211 1125 114 587 211 1106 216
1153 20 172 -11 316 -88 401 -95 105 -180 130 -484 137 l-227 6 -6 -29z"/>
<path d="M31473 4279 c-233 -625 -472 -1421 -643 -2147 -73 -312 -139 -629
-146 -708 -20 -226 114 -418 324 -463 53 -11 452 -16 452 -5 0 18 143 680 206
954 146 632 324 1334 345 1355 6 6 9 6 9 0 0 -6 13 -118 30 -250 16 -132 50
-463 75 -735 25 -272 55 -549 66 -615 40 -238 100 -413 183 -529 53 -75 102
-116 183 -154 55 -26 66 -27 244 -30 l186 -4 55 79 c183 262 301 481 759 1398
325 651 419 832 419 805 0 -105 -110 -895 -191 -1369 -84 -492 -83 -486 -70
-571 14 -92 58 -187 108 -231 47 -41 143 -86 212 -99 30 -5 158 -10 285 -10
l232 0 42 233 c131 725 240 1558 307 2332 39 443 10 654 -108 805 -110 139
-281 200 -569 200 l-97 0 -102 -97 c-116 -111 -225 -244 -321 -389 -58 -87
-247 -407 -583 -989 -54 -93 -172 -314 -261 -489 l-162 -320 -6 45 c-3 24 -8
80 -11 124 -9 118 -42 384 -75 595 -41 261 -167 954 -186 1020 -45 156 -171
319 -301 388 -155 82 -255 101 -559 109 l-240 6 -91 -244z"/>
<path d="M15057 4379 c-10 -183 -8 -633 3 -835 47 -825 205 -1602 452 -2229
70 -179 149 -273 256 -306 20 -6 107 -13 193 -16 l156 -6 93 109 c300 352 803
1083 1182 1719 159 266 232 402 444 827 215 432 244 507 230 604 -16 119 -83
200 -194 234 -57 18 -93 20 -332 20 l-268 0 -27 -72 c-205 -545 -569 -1290
-906 -1851 -143 -238 -225 -362 -232 -350 -8 12 -53 241 -82 408 -67 399 -104
801 -115 1235 -8 329 -9 340 -58 437 -30 57 -122 138 -190 165 -54 21 -73 23
-328 26 l-271 3 -6 -122z"/>
<path d="M28985 3870 c-575 -51 -991 -361 -1215 -907 -71 -172 -103 -301 -236
-928 -112 -530 -116 -554 -112 -650 7 -189 79 -279 264 -330 62 -17 494 -35
494 -20 0 36 349 1642 372 1713 88 265 262 401 515 402 273 1 403 -160 363
-448 -6 -46 -65 -339 -131 -650 -128 -603 -144 -709 -119 -812 10 -40 24 -64
59 -100 84 -87 215 -113 531 -108 l174 3 168 805 c160 765 168 812 174 950 24
592 -295 980 -876 1065 -126 18 -314 25 -425 15z"/>
<path d="M25993 3860 c-834 -105 -1377 -707 -1432 -1590 -26 -409 81 -724 328
-971 175 -175 386 -280 650 -324 149 -25 417 -16 587 19 324 68 564 195 785
415 183 184 311 395 398 657 85 257 118 538 91 764 -63 508 -421 901 -928
1016 -81 18 -375 27 -479 14z m289 -729 c78 -30 159 -106 198 -184 46 -94 64
-206 57 -362 -24 -522 -236 -863 -573 -922 -214 -36 -409 52 -487 221 -39 82
-49 143 -49 283 2 505 193 868 512 975 80 26 262 21 342 -11z"/>
<path d="M36935 3864 c-16 -2 -66 -9 -110 -15 -116 -16 -253 -54 -376 -104
-543 -223 -946 -718 -1093 -1345 -35 -151 -47 -247 -47 -398 0 -347 109 -622
328 -833 285 -274 705 -362 1203 -252 208 45 425 141 593 260 106 76 278 246
357 353 207 282 348 647 391 1014 14 122 7 344 -15 446 -96 447 -393 753 -826
851 -82 19 -335 33 -405 23z m91 -795 c201 -76 286 -340 225 -701 -59 -343
-215 -594 -431 -692 -117 -53 -265 -56 -376 -6 -100 44 -179 155 -205 288 -19
100 -6 352 25 485 48 208 120 341 256 477 100 100 165 142 263 166 66 17 173
9 243 -17z"/>
<path d="M12095 3799 c-464 -27 -825 -92 -906 -161 -34 -29 -1553 -2233 -1579
-2291 -38 -84 -18 -179 67 -315 187 -301 624 -649 932 -742 153 -47 321 -7
636 150 226 113 335 191 500 355 374 374 746 916 1461 2132 174 296 350 588
390 649 41 61 74 121 74 132 0 25 -36 47 -102 61 -148 33 -1091 52 -1473 30z"/>
<path d="M20115 3790 c-184 -25 -361 -149 -434 -303 -28 -60 -95 -340 -83
-352 3 -3 298 -5 656 -5 l650 0 -59 -61 c-33 -34 -319 -278 -635 -543 -316
-264 -607 -512 -646 -551 -184 -183 -274 -363 -274 -555 0 -179 76 -305 219
-362 l56 -23 765 -3 c542 -2 785 1 833 9 96 16 214 77 288 149 82 81 111 148
153 353 l33 167 -646 2 -646 3 85 85 c47 47 303 268 570 491 492 413 666 575
749 698 94 139 141 283 141 435 0 180 -79 294 -244 350 -59 20 -81 21 -766 22
-388 1 -732 -2 -765 -6z"/>
<path d="M22113 3494 c8 -478 72 -992 188 -1514 58 -265 147 -574 200 -697
l19 -44 -62 -92 c-76 -114 -204 -243 -278 -279 -150 -74 -338 -75 -536 -4
l-63 23 -21 -89 c-48 -212 -54 -257 -43 -324 23 -134 105 -237 236 -300 91
-43 179 -54 343 -44 282 18 465 107 732 355 217 202 590 677 984 1255 393 576
797 1386 873 1750 27 127 -5 215 -93 263 -68 37 -151 47 -398 47 l-211 0 -61
-178 c-133 -390 -366 -886 -590 -1257 -82 -135 -215 -336 -220 -331 -14 15
-74 412 -102 676 -23 227 -50 594 -50 696 0 176 -97 312 -260 366 -58 19 -94
22 -329 26 l-264 4 6 -308z"/>
<path d="M41811 3643 c-365 -1878 -363 -1870 -368 -2033 -6 -187 8 -267 67
-386 45 -91 128 -179 216 -226 143 -77 411 -110 595 -74 181 37 311 130 383
277 29 59 45 113 72 249 19 96 34 180 34 186 0 8 -41 13 -127 16 -147 5 -198
22 -250 81 -36 41 -49 99 -40 181 3 28 56 310 118 626 l113 575 0 160 c1 147
-1 164 -22 210 -74 161 -222 215 -587 215 l-192 0 -12 -57z"/>
<path d="M18007 2758 c-109 -513 -202 -971 -207 -1018 -45 -395 104 -643 431
-719 311 -72 606 -4 735 171 55 75 80 143 110 298 13 69 26 134 29 146 4 20 0
21 -99 28 -174 11 -248 45 -287 131 -35 76 -27 134 100 746 124 595 141 691
141 788 0 105 -39 208 -100 259 -8 7 -42 26 -75 43 -82 39 -220 59 -420 59
l-160 0 -198 -932z"/>
</g>
</svg>
