<?xml version="1.0" standalone="no"?>
<!DOCTYPE svg PUBLIC "-//W3C//DTD SVG 20010904//EN"
 "http://www.w3.org/TR/2001/REC-SVG-20010904/DTD/svg10.dtd">
<svg version="1.0" xmlns="http://www.w3.org/2000/svg"
 width="2960.000000pt" height="660.000000pt" viewBox="0 0 2960.000000 660.000000"
 preserveAspectRatio="xMidYMid meet">

<g transform="translate(0.000000,660.000000) scale(0.100000,-0.100000)"
fill="#000000" stroke="none">
<path d="M17535 6430 c-208 -45 -346 -231 -333 -447 12 -176 109 -311 272
-377 39 -15 74 -20 151 -20 89 -1 107 2 160 27 90 42 134 76 182 140 202 275
18 665 -322 682 -38 2 -88 0 -110 -5z"/>
<path d="M6006 6313 c169 -312 403 -697 615 -1013 402 -601 756 -991 1031
-1135 145 -76 389 -138 688 -174 298 -36 419 -43 920 -48 612 -7 1140 11 2090
69 465 29 965 30 1155 4 228 -31 388 -72 497 -127 l58 -29 -78 122 c-669 1047
-1130 1720 -1269 1850 -63 58 -155 89 -350 117 -417 60 -585 65 -2408 67
-1683 2 -1782 3 -2065 40 -251 32 -492 95 -658 170 -84 38 -195 109 -231 148
-45 48 -43 27 5 -61z"/>
<path d="M14013 6033 c-12 -48 -9 -825 5 -1003 62 -800 207 -1501 423 -2043
118 -297 192 -347 509 -347 l86 0 36 38 c270 284 920 1233 1303 1902 145 252
504 959 536 1055 48 145 25 274 -63 349 -75 64 -101 69 -408 73 l-275 4 -84
-213 c-176 -448 -451 -1014 -719 -1483 -89 -156 -310 -513 -323 -520 -4 -3
-11 4 -14 17 -2 13 -11 53 -20 90 -28 127 -75 413 -100 608 -40 317 -56 536
-64 870 -7 259 -11 324 -25 365 -41 115 -115 193 -224 237 -52 20 -78 22 -314
26 l-257 4 -8 -29z"/>
<path d="M3902 5890 c-514 -10 -935 -20 -937 -22 -3 -2 23 -24 56 -48 120 -88
411 -407 651 -717 328 -423 632 -883 1243 -1888 881 -1447 1210 -1940 1602
-2402 319 -376 509 -517 768 -570 73 -15 162 -15 1070 -4 545 6 1048 14 1118
17 l128 7 -53 21 c-188 77 -430 280 -631 531 -178 222 -456 627 -1787 2605
-718 1067 -1094 1622 -1274 1880 -217 312 -467 509 -742 585 -89 25 -201 25
-1212 5z"/>
<path d="M2655 5618 c-285 -347 -952 -1053 -1331 -1410 -367 -344 -543 -481
-677 -525 l-52 -17 45 -9 c56 -11 1145 -1 1450 13 330 14 584 30 677 40 98 11
143 32 368 173 416 260 745 496 745 533 0 50 -428 595 -704 897 -206 224 -384
377 -441 377 -14 0 -40 -24 -80 -72z"/>
<path d="M24714 5439 c-876 -63 -1463 -731 -1466 -1669 -1 -343 106 -615 327
-834 154 -153 376 -265 605 -307 116 -22 407 -16 552 9 556 100 969 450 1171
992 100 270 139 595 102 843 -68 449 -395 815 -835 931 -78 21 -296 50 -335
44 -5 0 -60 -4 -121 -9z m146 -695 c79 -18 171 -72 211 -125 74 -97 99 -192
99 -379 0 -507 -212 -876 -539 -941 -75 -14 -209 -7 -271 15 -162 58 -254 200
-267 411 -18 292 87 668 234 834 144 163 336 230 533 185z"/>
<path d="M27491 5439 c-95 -11 -258 -50 -344 -83 -313 -118 -556 -346 -722
-678 -99 -197 -139 -338 -271 -958 -115 -536 -119 -559 -119 -675 0 -106 3
-126 24 -169 44 -89 129 -149 251 -176 67 -14 460 -27 460 -14 0 18 331 1570
346 1624 8 30 35 96 60 147 98 205 247 290 489 281 90 -3 108 -7 168 -36 78
-39 116 -86 142 -177 32 -110 19 -210 -105 -790 -121 -568 -140 -672 -140
-756 0 -156 77 -243 245 -280 38 -8 142 -13 285 -13 l225 -1 164 780 164 780
0 200 c1 184 -1 208 -25 295 -111 411 -409 646 -890 699 -111 13 -299 12 -407
0z"/>
<path d="M18868 5355 c-151 -37 -300 -152 -358 -278 -22 -46 -90 -307 -90
-344 0 -2 286 -3 635 -3 349 0 635 -4 635 -8 0 -20 -178 -176 -690 -604 -524
-438 -678 -578 -748 -681 -95 -137 -143 -309 -124 -439 27 -178 125 -281 292
-308 87 -13 1432 -13 1520 0 147 23 314 140 373 261 16 31 39 116 56 199 16
80 32 157 36 173 l7 27 -628 0 -628 0 74 76 c41 41 280 247 530 457 250 210
504 429 564 487 234 227 327 405 330 630 1 129 -19 185 -93 261 -39 40 -74 64
-116 80 l-60 24 -730 2 c-597 1 -740 -1 -787 -12z"/>
<path d="M20863 5138 c8 -265 19 -429 48 -673 64 -559 185 -1120 325 -1507
l28 -78 -59 -87 c-158 -232 -300 -323 -505 -323 -104 0 -241 27 -331 64 -13 6
-21 -16 -48 -138 -42 -183 -41 -270 2 -359 54 -109 175 -199 305 -226 67 -14
208 -14 309 0 368 50 669 305 1200 1019 168 225 393 547 504 719 271 423 566
1011 686 1370 76 225 69 331 -27 400 -60 44 -115 51 -378 51 l-237 0 -31 -97
c-126 -395 -347 -872 -597 -1288 -135 -225 -208 -331 -217 -314 -10 18 -54
290 -79 489 -26 206 -49 480 -61 725 -6 133 -15 215 -25 245 -36 104 -124 183
-243 220 -57 18 -93 20 -320 20 l-255 0 6 -232z"/>
<path d="M17060 5218 c-28 -131 -324 -1528 -351 -1658 -39 -185 -48 -370 -25
-480 61 -286 278 -431 646 -431 207 0 349 50 450 157 72 76 104 152 140 332
16 84 30 154 30 156 0 2 -51 6 -112 8 -208 9 -288 72 -288 231 0 26 16 123 34
215 19 92 73 352 120 577 94 457 109 560 95 659 -30 212 -182 286 -585 286
l-142 0 -12 -52z"/>
<path d="M11380 3810 c-547 -27 -912 -86 -1003 -164 -20 -17 -1354 -1943
-1500 -2166 -53 -82 -64 -136 -42 -216 72 -268 542 -705 920 -857 72 -29 90
-32 185 -32 95 0 115 4 212 37 195 68 429 188 577 298 241 179 552 556 926
1125 214 325 334 523 830 1365 92 157 198 332 236 388 38 57 69 112 69 121 0
25 -28 47 -75 60 -118 33 -962 59 -1335 41z"/>
<path d="M22755 1752 c-48 -31 -73 -64 -86 -112 -22 -87 22 -174 106 -206 192
-73 328 187 162 310 -40 29 -141 34 -182 8z"/>
<path d="M15311 1131 c-68 -326 -126 -614 -129 -640 -6 -67 14 -153 47 -198
15 -21 52 -51 82 -67 101 -55 269 -46 355 19 40 30 61 75 78 164 l13 71 -65 0
c-85 0 -128 21 -143 69 -9 31 2 93 86 491 58 274 96 479 97 516 1 118 -44 154
-202 162 l-95 4 -124 -591z"/>
<path d="M17300 1715 c0 -4 -62 -296 -137 -649 -83 -390 -137 -665 -137 -701
-1 -48 4 -67 22 -93 35 -49 73 -63 181 -69 l96 -6 59 284 c32 156 61 288 63
292 3 5 23 -33 45 -85 65 -152 173 -370 206 -415 45 -60 82 -77 172 -76 72 1
123 15 161 45 19 15 69 87 69 99 0 4 -20 17 -43 27 -24 11 -56 32 -71 48 -39
42 -108 164 -157 276 l-42 97 119 133 c65 73 180 195 254 272 l135 138 -165
-4 c-126 -3 -174 -8 -203 -21 -50 -22 -178 -152 -333 -340 -70 -83 -130 -153
-134 -155 -5 -2 -4 14 0 35 5 21 41 190 79 375 60 285 70 344 62 379 -18 82
-68 110 -203 117 -54 3 -98 1 -98 -3z"/>
<path d="M23336 1709 c-20 -61 -276 -1314 -276 -1350 0 -31 7 -57 23 -79 36
-55 74 -71 181 -77 94 -6 95 -6 101 18 3 13 30 143 61 289 30 145 56 265 58
267 1 2 31 -61 66 -140 174 -392 213 -440 355 -440 107 0 177 37 218 118 l15
30 -51 25 c-35 17 -65 42 -89 75 -35 45 -124 216 -161 306 l-15 36 110 124
c61 68 174 191 251 273 l141 148 -164 -4 c-142 -4 -170 -7 -205 -25 -51 -27
-188 -169 -339 -351 -65 -79 -120 -141 -122 -139 -3 2 29 165 71 360 41 196
75 374 75 394 0 52 -28 103 -69 127 -44 25 -228 37 -235 15z"/>
<path d="M25135 1615 c-168 -30 -183 -35 -188 -58 -5 -19 -227 -1080 -243
-1160 -10 -47 6 -107 38 -142 35 -40 101 -58 199 -53 l64 3 52 249 c29 137 54
251 56 252 2 2 21 -2 43 -8 53 -15 226 -15 294 1 168 40 328 160 399 301 137
273 33 530 -248 616 -59 18 -367 17 -466 -1z m362 -285 c44 -27 57 -55 55
-128 -2 -131 -75 -216 -195 -229 -57 -6 -154 3 -174 15 -17 11 56 350 77 356
8 2 58 4 110 5 78 1 101 -3 127 -19z"/>
<path d="M14345 1586 c-73 -33 -127 -100 -163 -199 -35 -98 -88 -300 -137
-532 -74 -342 -42 -508 115 -603 89 -53 114 -57 365 -57 l230 0 58 28 c77 38
103 75 131 188 13 52 23 95 22 96 -1 1 -42 -5 -90 -13 -64 -11 -139 -15 -265
-12 -202 3 -231 12 -258 76 -14 33 -14 47 -2 122 l14 85 210 5 c234 6 258 12
311 72 22 25 36 56 48 108 9 40 16 79 16 86 0 12 -46 14 -260 14 l-261 0 7 38
c4 20 19 80 34 132 l27 95 249 5 c249 5 249 5 307 33 78 39 120 104 141 220
l7 37 -403 0 c-402 0 -403 0 -453 -24z"/>
<path d="M18719 1581 c-100 -39 -203 -130 -244 -216 -15 -32 -53 -190 -105
-435 -72 -341 -81 -394 -78 -465 9 -169 111 -263 294 -273 111 -6 184 16 240
71 36 37 44 52 62 132 11 49 19 91 18 92 -1 2 -18 -2 -37 -7 -18 -6 -67 -10
-107 -10 -68 0 -76 2 -103 29 -18 19 -29 40 -29 58 0 15 21 130 47 256 l48
227 90 0 c159 1 246 63 269 195 4 22 10 50 13 63 l5 22 -156 0 c-133 0 -156 2
-156 15 0 9 11 67 25 131 14 64 25 120 25 125 0 15 -72 9 -121 -10z"/>
<path d="M16434 1351 c-197 -31 -363 -159 -458 -352 -61 -124 -86 -226 -86
-350 0 -155 42 -261 138 -351 94 -89 194 -122 357 -121 213 2 345 57 401 165
14 27 47 159 41 165 -2 1 -30 -8 -62 -22 -86 -34 -183 -48 -299 -43 -76 4
-111 10 -141 25 -66 34 -105 89 -105 147 l0 23 198 6 c210 6 297 20 386 60
120 55 169 135 170 277 1 128 -43 212 -146 284 -103 70 -268 107 -394 87z
m163 -276 c41 -17 67 -57 65 -101 -3 -89 -43 -105 -261 -112 l-163 -5 7 24
c25 81 66 146 112 176 63 41 165 49 240 18z"/>
<path d="M19489 1337 c-124 -42 -228 -147 -278 -282 -31 -82 -141 -616 -141
-683 0 -109 55 -156 196 -168 75 -6 82 -5 88 12 3 11 37 172 76 358 39 187 78
355 86 375 41 98 107 136 221 129 37 -3 75 -8 84 -12 14 -6 20 5 34 70 28 126
7 178 -83 208 -69 24 -202 21 -283 -7z"/>
<path d="M20440 1353 c-276 -32 -491 -219 -560 -487 -68 -266 -5 -488 173
-607 88 -58 171 -82 292 -82 270 1 475 126 586 358 48 101 68 176 76 287 11
160 -31 282 -135 391 -106 111 -257 160 -432 140z m130 -298 c62 -31 90 -95
90 -202 -1 -198 -81 -350 -205 -389 -94 -30 -185 1 -229 76 -18 29 -21 52 -21
135 1 208 87 363 220 393 46 11 108 5 145 -13z"/>
<path d="M21673 1349 c-210 -35 -380 -196 -451 -429 -40 -131 -124 -553 -118
-593 14 -86 60 -114 203 -123 l98 -7 73 344 c84 399 103 451 179 495 89 53
214 38 250 -29 27 -51 20 -132 -36 -390 -28 -131 -51 -258 -51 -282 0 -98 35
-121 196 -131 l110 -7 63 304 c85 404 87 423 73 514 -21 132 -85 227 -192 284
-102 55 -254 74 -397 50z"/>
<path d="M26359 1345 c-125 -25 -242 -102 -282 -187 -9 -20 -23 -68 -31 -107
l-13 -71 31 21 c56 37 134 68 201 80 92 16 251 8 293 -15 39 -20 65 -73 56
-114 -14 -63 -2 -59 -167 -65 -165 -6 -244 -21 -342 -67 -87 -42 -139 -90
-177 -168 -30 -60 -33 -75 -33 -152 0 -68 5 -96 24 -138 63 -141 234 -205 482
-182 169 16 248 48 326 133 75 81 116 187 173 447 39 178 39 301 -1 385 -80
169 -294 249 -540 200z m196 -697 c-29 -148 -74 -211 -158 -223 -62 -10 -111
1 -144 30 -24 19 -28 30 -26 68 4 113 69 154 246 156 l89 1 -7 -32z"/>
<path d="M27486 1349 c-106 -26 -229 -126 -280 -228 -38 -75 -52 -131 -117
-436 -63 -303 -67 -342 -33 -406 9 -19 32 -38 58 -49 45 -21 206 -39 206 -24
0 5 34 169 75 364 46 218 84 372 98 399 12 25 39 59 60 75 37 29 44 31 125 31
48 0 96 -3 108 -8 19 -7 21 -1 37 83 17 85 17 93 1 126 -27 56 -79 77 -199 80
-55 2 -117 -1 -139 -7z"/>
<path d="M28285 1353 c-187 -25 -325 -134 -349 -278 -4 -22 -9 -52 -12 -67
l-5 -27 58 35 c81 49 142 65 262 71 132 7 201 -7 236 -48 26 -32 32 -78 16
-122 -9 -24 -12 -24 -158 -30 -231 -8 -372 -56 -466 -156 -65 -69 -90 -144
-85 -251 8 -159 88 -249 258 -291 82 -20 276 -15 374 11 193 49 271 153 347
457 82 331 74 452 -37 572 -98 106 -251 149 -439 124z m151 -715 c-18 -117
-48 -171 -109 -198 -70 -32 -171 -21 -202 23 -29 42 -12 130 34 171 31 28 105
45 200 45 l84 1 -7 -42z"/>
<path d="M22606 1269 c-16 -47 -159 -755 -164 -805 -13 -172 88 -274 273 -274
136 0 211 56 239 178 9 39 16 76 16 81 0 6 -21 11 -47 11 -60 0 -94 17 -112
54 -12 26 -8 55 43 306 31 152 56 295 56 319 0 54 -22 96 -63 118 -43 23 -234
32 -241 12z"/>
</g>
</svg>
