<?xml version="1.0" ?>
<!DOCTYPE svg  PUBLIC '-//W3C//DTD SVG 1.1//EN'  'http://www.w3.org/Graphics/SVG/1.1/DTD/svg11.dtd'>
<!-- Uploaded to: SVG Repo, www.svgrepo.com, Generator: SVG Repo Mixer Tools -->
<svg width="800px" height="800px" viewBox="0 0 512 512" version="1.1" xml:space="preserve" xmlns="http://www.w3.org/2000/svg" xmlns:xlink="http://www.w3.org/1999/xlink">
<g id="email_x2C__mail__x2C__letter__x2C__internet__x2C__envelope__x2C__chat__x2C___up__x2C_">
<g>
<path d="M438.361,254.146V123.273c0-9.779-3.96-18.582-10.308-25.01    L296.278,230.025l-25.607,25.64c-9.175,9.141-21.231,13.914-33.208,13.914c-11.989,0-24.047-4.773-33.215-13.914l-25.619-25.64    l-54.97,54.596l-76.792,76.276c6.333,6.348,15.313,10.39,25.009,10.39h227.847c-2.278-8.437-3.526-17.334-3.526-26.502    c0-27.668,11.203-52.678,29.242-70.717c18.146-18.051,43.075-29.254,70.743-29.254    C411.235,244.814,425.585,248.178,438.361,254.146L438.361,254.146z" style="fill-rule:evenodd;clip-rule:evenodd;fill:#7CCACB;"/>
<path d="M123.659,284.621l54.97-54.596L46.867,98.263    c-6.429,6.428-10.403,15.23-10.403,25.01V335.97c0,9.684,3.974,18.581,10.403,24.928L123.659,284.621z" style="fill-rule:evenodd;clip-rule:evenodd;fill:#7CCACB;"/>
<path d="M51.614,103.024c-2.645,2.631-4.842,5.805-6.253,9.33c-1.41,3.256-2.115,6.958-2.115,10.919V335.97    c0,3.878,0.705,7.596,2.115,10.932c0.625,1.41,1.33,2.74,2.116,4.041l126.391-125.679l9.427,9.434L46.867,370.338l-4.761-4.692    c-3.783-3.853-6.957-8.437-9.073-13.645c-2.116-4.938-3.255-10.391-3.255-16.031V123.273c0-5.724,1.139-11.095,3.255-16.112    c2.116-5.113,5.29-9.779,9.073-13.659L51.614,103.024z" style="fill:#4A374F;"/>
<path d="M396.182,265.43c-43.861,0-79.37,35.494-79.37,79.355    c0,43.779,35.509,79.342,79.37,79.342s79.342-35.563,79.342-79.342C475.523,300.924,440.043,265.43,396.182,265.43L396.182,265.43    z" style="fill-rule:evenodd;clip-rule:evenodd;fill:#FBCD64;"/>
<path d="M396.182,272.116c-20.1,0-38.247,8.109-51.458,21.32c-13.128,13.13-21.212,31.275-21.212,51.349    s8.084,38.22,21.212,51.348c13.211,13.211,31.358,21.321,51.458,21.321c20.072,0,38.22-8.11,51.321-21.321    c13.128-13.128,21.32-31.274,21.32-51.348s-8.083-38.219-21.32-51.43C434.401,280.226,416.254,272.116,396.182,272.116    L396.182,272.116z M335.311,283.916c15.599-15.583,37.082-25.187,60.871-25.187c23.762,0,45.271,9.604,60.842,25.187    c15.597,15.597,25.199,37.08,25.199,60.869c0,23.788-9.684,45.271-25.199,60.87c-15.57,15.569-37.08,25.171-60.842,25.171    c-23.789,0-45.272-9.602-60.871-25.171c-15.596-15.599-25.198-37.082-25.198-60.87    C310.112,320.996,319.715,299.513,335.311,283.916L335.311,283.916z" style="fill:#4A374F;"/>
<path d="M178.629,230.025l25.619,25.64    c9.168,9.141,21.226,13.914,33.215,13.914c11.976,0,24.033-4.773,33.208-13.914l25.607-25.64L428.054,98.263    c-6.348-6.347-15.326-10.308-25.009-10.308H71.876c-9.697,0-18.676,3.961-25.009,10.308L178.629,230.025z" style="fill-rule:evenodd;clip-rule:evenodd;fill:#FBCD64;"/>
<path d="M301.839,377.987H71.876c-5.642,0-11.094-1.141-16.125-3.256c-5.1-2.115-9.766-5.207-13.563-9.086    l9.426-9.495c2.563,2.632,5.818,4.747,9.344,6.239c3.336,1.41,7.039,2.224,10.918,2.224H298.15    C299.099,369.171,300.348,373.674,301.839,377.987L301.839,377.987z" style="fill:#4A374F;"/>
<path d="M301.053,225.263l37.433,37.78l-0.19,0.189l0,0l-0.163,0.081l-0.189,0.082l-0.081,0.19    l-0.163,0.081l-0.19,0.163l-0.162,0.107l0,0l-0.189,0.082l-0.163,0.189l-0.19,0.082l-0.162,0.162l-0.19,0.108l-0.081,0.081h-0.081    l-0.19,0.163l-0.163,0.108l-0.189,0.164l-0.081,0.081l-0.189,0.189h-0.081l-0.083,0.081l-0.189,0.163l-0.162,0.107l-0.189,0.082    l-0.787,0.705l-0.162,0.082l-0.191,0.189l-0.162,0.081l0,0l-0.189,0.163l-0.163,0.108l-0.082,0.163l-0.189,0.081l-0.163,0.19    l-0.107,0.081h-0.082l-0.189,0.189l-0.163,0.081l-0.082,0.163l-0.189,0.109l-0.597,0.596l-0.189,0.108l-0.163,0.164l-0.189,0.081    l0,0l-0.163,0.189l-0.108,0.081l-0.163,0.189l-0.189,0.083l-0.163,0.162l-0.082,0.095L329.751,270l-0.082,0.082l-0.162,0.189    l-0.189,0.081l-0.164,0.19l-0.108,0.163h-0.081l-0.081,0.108l-0.189,0.162l-0.163,0.081l-0.19,0.19l-0.081,0.163l-0.163,0.108    l-36.483-36.823L301.053,225.263z M431.742,251.325V123.273c-0.081-3.961-0.786-7.663-2.197-10.919    c-1.491-3.525-3.607-6.699-6.238-9.33l9.493-9.522c3.798,3.88,6.972,8.545,9.087,13.659c2.008,5.018,3.174,10.389,3.174,16.112    v134.318l-0.189-0.189l-0.163-0.082l-0.189-0.081l-0.271-0.082l-0.163-0.189l-0.189-0.081h-0.081l-0.163-0.082l-0.19-0.108    l-0.162-0.163l-0.189-0.081l-0.271-0.082l-0.082-0.109h-0.081l-0.189-0.163l-0.244-0.081l-0.19-0.109l-0.163-0.081l-0.189-0.081    h-0.081l-0.163-0.191l-0.189-0.082l-0.271-0.081l-0.163-0.081l-0.189-0.109h-0.081l-0.164-0.081l-0.189-0.163l-0.162-0.109    l-0.271-0.082l-0.19-0.081H439.5l-0.081-0.082l-0.271-0.108l-0.164-0.082l-0.189-0.162l-0.271-0.109h-0.082l-0.081-0.082    l-0.271-0.081l-0.163-0.082l-0.189-0.108l-0.271-0.082l-0.164-0.081l0,0l-0.895-0.354l-0.163-0.19h-0.081l-0.108-0.081    l-0.245-0.081l-0.189-0.081l-0.271-0.109l-0.163-0.082h-0.082l-0.081-0.081l-0.271-0.082l-0.189-0.109l-0.271-0.081l-0.163-0.082    l-0.189-0.081h-0.081l-0.162-0.109l-0.272-0.081l-0.162-0.081l-0.189-0.082l-0.272-0.109l0,0l-0.162-0.081l-0.271-0.082    l-0.162-0.081h-0.272L431.742,251.325z" style="fill:#4A374F;"/>
<path d="M428.054,98.263L270.671,255.665    c-9.175,9.141-21.231,13.914-33.208,13.914c-11.989,0-24.047-4.773-33.215-13.914L46.867,98.263    c6.333-6.347,15.313-10.308,25.009-10.308h331.169C412.728,87.955,421.706,91.916,428.054,98.263L428.054,98.263z" style="fill-rule:evenodd;clip-rule:evenodd;fill:#7CCACB;"/>
<path d="M432.719,103.024L275.418,260.411c-5.207,5.1-11.182,9.061-17.529,11.705    c-6.51,2.739-13.467,4.15-20.425,4.15c-6.971,0-13.929-1.411-20.534-4.15c-6.334-2.727-12.33-6.605-17.429-11.705L37.44,98.344    l4.747-4.747c3.797-3.878,8.463-7.052,13.563-9.168c5.032-2.115,10.402-3.255,16.031-3.255h331.264    c5.642,0,11.094,1.14,16.112,3.255c5.099,2.116,9.764,5.29,13.643,9.168l4.667,4.747L432.719,103.024z M265.904,250.999    L418.018,98.792c-1.247-0.706-2.658-1.411-3.961-2.021c-3.444-1.41-7.133-2.211-11.012-2.211H71.781    c-3.784,0-7.568,0.801-10.918,2.211c-1.315,0.611-2.726,1.316-3.96,2.021L209.009,250.89c3.879,3.879,8.368,6.89,13.129,8.817    c4.841,2.115,10.117,3.092,15.326,3.092c5.276,0,10.47-0.977,15.313-3.011C257.535,257.78,262.025,254.77,265.904,250.999    L265.904,250.999z" style="fill:#4A374F;"/>
<path d="M403.559,394.886c0,3.717-2.983,6.7-6.672,6.7c-3.717,0-6.7-2.902-6.7-6.592l-0.624-84.902    l-18.771,17.875c-2.632,2.551-6.944,2.469-9.413-0.271c-2.55-2.631-2.468-6.863,0.164-9.413l29.945-28.535    c2.576-2.469,6.618-2.469,9.169,0l30.027,28.428c2.739,2.576,2.821,6.781,0.271,9.438c-2.55,2.714-6.781,2.821-9.412,0.271    l-18.69-17.713L403.559,394.886z" style="fill:#4A374F;"/>
</g>
</g>
<g id="Layer_1"/>
</svg>